# xmcd CD database file
#
# Track frame offsets:
#	150
#	9101
#	19434
#	30807
#	40372
#	52408
#	62546
#	73052
#	85096
#	96235
#	107677
#	117427
#	128813
#	140912
#	151060
#
# Disc length: 2162 seconds
#
# Revision: 0
# Processed by: cddbd v1.5.2PL0 Copyright (c) Steve Scherf et al.
# Submitted via: CDex 1.51
#
DISCID=c808700f
DTITLE=Elvis Presley - 50 years on... the king still lives
DYEAR=2007
DGENRE=Jazz
TTITLE0=That's Alright Mama
TTITLE1=Good Rockin' Tonight
TTITLE2=I Don't Care If The Sun Don't Shine
TTITLE3=Blue Moon Of Kentucky
TTITLE4=Milkcow Blues Boogie
TTITLE5=You're A Heartbreaker
TTITLE6=Baby, Lets Play House
TTITLE7=I'm Left, You're Right, She's Gone
TTITLE8=Mystery Train
TTITLE9=I Forgot To Remember To Forget
TTITLE10=Lawdy Miss Clawdy
TTITLE11=We're Gonna Move
TTITLE12=I Want You, I Need You, I Love You
TTITLE13=Poor Boy
TTITLE14=Shake, Rattle and Roll
EXTD=YEAR: 2007
EXTT0=
EXTT1=
EXTT2=
EXTT3=
EXTT4=
EXTT5=
EXTT6=
EXTT7=
EXTT8=
EXTT9=
EXTT10=
EXTT11=
EXTT12=
EXTT13=
EXTT14=
PLAYORDER=
